<svg xmlns="http://www.w3.org/2000/svg" version="1.1" xmlns:xlink="http://www.w3.org/1999/xlink" viewBox="0 0 200 200" width="200" height="200"><metadata><rdf:RDF xmlns:rdf="http://www.w3.org/1999/02/22-rdf-syntax-ns#" xmlns:dc="http://purl.org/dc/elements/1.1/"><rdf:Description><dc:creator>RealFaviconGenerator</dc:creator><dc:source>https://realfavicongenerator.net</dc:source></rdf:Description></rdf:RDF></metadata><rect width="200" height="200" fill="url('#gradient')"></rect><defs><linearGradient id="gradient" gradientTransform="rotate(45 0.5 0.5)"><stop offset="0%" stop-color="#00e8ff"></stop><stop offset="100%" stop-color="#1000cd"></stop></linearGradient></defs><g><g fill="#1defe2" transform="matrix(6.063157894736842,0,0,6.063157894736842,5.1423620744755425,143.11330870578163)" stroke="#5b5598" stroke-width="0.2"><path d="M12.71-7.60L12.71-1.76Q11.92-0.88 10.40-0.34Q8.88 0.20 7.06 0.20L7.06 0.20Q4.27 0.20 2.60-1.51Q0.93-3.22 0.81-6.27L0.81-6.27L0.80-7.50Q0.80-9.60 1.54-11.17Q2.29-12.73 3.67-13.58Q5.05-14.42 6.87-14.42L6.87-14.42Q9.52-14.42 10.99-13.21Q12.46-11.99 12.71-9.58L12.71-9.58L9.40-9.58Q9.23-10.77 8.64-11.28Q8.06-11.79 6.98-11.79L6.98-11.79Q5.69-11.79 4.99-10.69Q4.29-9.60 4.28-7.57L4.28-7.57L4.28-6.71Q4.28-4.58 5.00-3.51Q5.73-2.44 7.29-2.44L7.29-2.44Q8.63-2.44 9.29-3.04L9.29-3.04L9.29-5.24L6.90-5.24L6.90-7.60L12.71-7.60ZM16.59-3.19L16.59-3.19Q17.37-3.19 17.89-2.73Q18.41-2.27 18.41-1.54Q18.41-0.82 17.89-0.36Q17.37 0.11 16.59 0.11L16.59 0.11Q15.80 0.11 15.29-0.36Q14.78-0.83 14.78-1.54Q14.78-2.26 15.29-2.72Q15.80-3.19 16.59-3.19ZM24.40-14.22L24.40 0L20.99 0L20.99-14.22L24.40-14.22ZM28.67-3.19L28.67-3.19Q29.45-3.19 29.97-2.73Q30.49-2.27 30.49-1.54Q30.49-0.82 29.97-0.36Q29.45 0.11 28.67 0.11L28.67 0.11Q27.88 0.11 27.37-0.36Q26.86-0.83 26.86-1.54Q26.86-2.26 27.37-2.72Q27.88-3.19 28.67-3.19Z"></path></g></g></svg>